<svg width="249" height="292" viewBox="0 0 249 292" fill="none" xmlns="http://www.w3.org/2000/svg">
<path d="M175.962 174.501C207.579 142.883 248.924 124.643 248.924 85.7303C248.924 64.4499 231.899 46.8171 210.619 46.8171C195.418 46.8171 182.042 55.9373 175.962 68.7057C169.881 55.9373 156.505 46.8171 141.305 46.8171C120.024 46.8171 103 64.4494 103 85.7303C103 125.251 146.169 143.492 175.962 174.501Z" fill="#66C6B9"/>
<path d="M189.946 179.973C182.042 187.877 170.49 187.877 162.586 179.973C165.626 176.324 171.098 173.285 171.098 168.421C174.138 168.421 177.786 168.421 180.826 168.421C180.826 173.285 186.906 175.717 189.946 179.973Z" fill="#66C6B9"/>
<path d="M230.075 69.922C234.332 74.786 236.156 80.8663 233.724 82.6904C231.291 84.5144 225.819 82.6904 221.563 77.2182C217.307 72.3543 215.483 66.2739 217.915 64.4499C219.739 62.6258 225.211 65.0575 230.075 69.922Z" fill="white"/>
<path d="M182.042 172.069H170.49C169.274 172.069 168.665 171.461 168.665 170.245C168.665 169.029 169.274 168.421 170.49 168.421H182.042C183.258 168.421 183.866 169.029 183.866 170.245C183.866 170.852 183.258 172.069 182.042 172.069Z" fill="#415A6B"/>
<path d="M165.017 184.838C164.409 184.838 163.193 184.23 163.193 183.622C163.193 182.406 163.802 181.798 164.409 181.19C166.233 180.582 167.449 179.974 167.449 176.933C168.057 172.677 172.313 169.637 172.921 169.029C173.529 168.421 174.745 168.421 175.353 169.637C175.962 170.245 175.962 171.461 174.745 172.069C173.529 172.678 171.097 175.109 171.097 177.542C171.098 181.797 169.274 183.621 165.017 184.838Z" fill="#415A6B"/>
<path d="M185.69 210.374C175.354 192.741 179.61 170.245 179.61 170.245V169.636H175.962C175.353 171.461 171.705 193.349 182.65 212.198C192.378 229.83 177.786 261.447 177.786 262.055C177.177 263.271 177.786 263.879 178.394 264.488H179.002C179.61 264.488 180.218 263.879 180.826 263.272C181.434 262.055 196.634 229.83 185.69 210.374Z" fill="#415A6B"/>
<path d="M33.6866 133.764C67.1277 100.323 110.297 81.4746 110.297 40.7373C110.297 18.2405 92.0562 0 70.1676 0C54.3594 0 40.3752 9.12024 34.2948 23.1044C26.9986 9.12024 13.0145 0 -2.79434 0C-24.6829 0 -42.9234 18.2405 -42.9234 40.7373C-42.9234 82.0822 2.67781 100.931 33.6866 133.764Z" fill="#F3705A"/>
<path d="M47.6706 139.236C39.1586 147.14 27.6061 147.14 19.0941 139.236C22.1339 134.98 28.2143 132.548 28.2143 127.076C31.8624 127.076 34.9023 127.076 38.5504 127.076C38.5504 131.94 44.6302 134.98 47.6706 139.236Z" fill="#F3705A"/>
<path d="M90.2314 23.7126C95.0953 29.1848 96.3117 35.2651 93.8795 37.0892C91.4472 39.5214 85.3674 37.0892 81.1111 31.617C76.2472 26.1449 75.0308 20.0645 77.463 18.2405C79.8953 15.8082 85.3674 18.2405 90.2314 23.7126Z" fill="white"/>
<path d="M39.7662 130.723H27.6061C26.3902 130.723 25.782 130.115 25.782 128.899C25.782 127.683 26.3902 127.075 27.6061 127.075H39.7662C40.9821 127.075 41.5903 127.683 41.5903 128.899C42.1985 129.507 40.9821 130.723 39.7662 130.723Z" fill="#415A6B"/>
<path d="M22.1339 144.101C21.5257 144.101 20.3099 143.492 20.3099 142.885C20.3099 141.669 20.9181 141.061 21.5257 140.452C23.3498 139.844 24.5656 139.237 25.1738 136.196C25.782 131.94 30.0378 128.292 30.646 127.684C31.2542 127.076 32.47 127.076 33.0782 128.292C33.6864 128.901 33.6864 130.116 32.47 130.725C31.2542 131.333 28.8219 133.764 28.2137 136.197C28.2137 141.061 26.3897 142.885 22.1339 144.101Z" fill="#415A6B"/>
<path d="M43.4143 170.852C33.0782 152.004 36.7263 128.899 37.334 128.899V128.291H33.6859C33.0777 130.115 29.4296 153.22 40.3739 172.676C50.71 190.917 35.5099 224.358 34.9017 224.966C34.2935 226.181 34.9017 227.398 36.1175 227.398H36.7258C37.334 227.398 37.9416 226.79 38.5498 226.182C39.158 225.574 54.9668 190.917 43.4143 170.852Z" fill="#415A6B"/>
<path d="M103 225.574C133.4 195.781 172.314 178.149 172.314 141.668C172.314 121.603 155.897 105.187 135.833 105.187C121.24 105.187 109.08 113.699 103 125.859C96.9194 113.699 84.7592 105.187 70.1668 105.187C50.1023 105.187 33.6859 121.603 33.6859 141.668C33.6859 178.757 75.0313 195.781 103 225.574Z" fill="#FFD15C"/>
<path d="M115.768 229.83C108.472 237.126 97.5276 237.126 90.2314 229.83C93.2713 226.182 98.7434 223.75 98.7434 218.886C101.783 218.886 104.824 218.886 107.864 218.886C107.864 223.75 113.336 226.182 115.768 229.83Z" fill="#FFD15C"/>
<path d="M154.073 125.859C158.329 130.723 159.545 136.195 157.721 138.019C155.897 139.844 150.425 138.019 146.169 133.156C141.912 128.292 140.697 122.819 142.521 120.995C144.345 119.171 149.817 120.995 154.073 125.859Z" fill="white"/>
<path d="M109.08 222.534H98.1358C96.92 222.534 96.3118 221.926 96.3118 220.71C96.3118 219.494 96.92 218.886 98.1358 218.886H109.08C110.296 218.886 110.904 219.494 110.904 220.71C110.296 221.926 109.688 222.534 109.08 222.534Z" fill="#415A6B"/>
<path d="M92.6636 234.694C92.0554 234.694 90.8396 234.086 90.8396 233.478C90.8396 232.262 91.4478 231.654 92.0554 231.046C93.8795 230.438 95.0953 229.83 95.0953 227.398C95.7035 223.142 99.9593 220.102 99.9593 220.102C100.567 219.494 101.783 219.494 102.392 220.71C103 221.318 103 222.534 101.783 223.142C100.567 223.75 98.1352 226.182 98.1352 228.006C98.1358 231.654 96.3118 234.086 92.6636 234.694Z" fill="#415A6B"/>
<path d="M110.296 290.632C110.296 292.456 113.944 292.456 113.944 290.632C116.376 280.296 117.592 268.135 112.12 259.015C102.392 241.99 106.648 221.318 106.648 221.318V220.71H103C102.392 222.534 99.3516 243.207 109.08 260.839C113.944 269.351 112.728 280.904 110.296 290.632Z" fill="#415A6B"/>
</svg>
