<svg width="20" height="20" viewBox="0 0 20 20" fill="none" xmlns="http://www.w3.org/2000/svg">
<path d="M9.98832 10.2842C7.63416 10.2842 5.67749 8.32919 5.67749 6.01585C5.67749 3.62252 7.63416 1.66669 9.98916 1.66669C12.4242 1.66669 14.3 3.62169 14.3 6.01585C14.2958 7.15173 13.8408 8.23947 13.0349 9.04C12.2291 9.84053 11.1384 10.2883 10.0025 10.285L9.98832 10.2842ZM9.98832 4.18085C8.99166 4.18085 8.23332 5.01835 8.23332 6.01669C8.23332 7.01335 8.99166 7.77169 9.98916 7.77169C11.0267 7.77169 11.745 7.01335 11.745 6.01669C11.7458 5.01752 11.0267 4.18085 9.98832 4.18085ZM11.705 13.8359L14.1408 16.19C14.62 16.7075 14.62 17.4659 14.1408 17.945C13.6225 18.4625 12.8233 18.4625 12.4242 17.945L9.98916 15.5509L7.63416 17.945C7.39499 18.1842 7.07499 18.3034 6.71499 18.3034C6.43582 18.3034 6.11666 18.1834 5.83666 17.945C5.35749 17.4659 5.35749 16.7075 5.83666 16.1892L8.31166 13.835C7.41785 13.5703 6.56044 13.1955 5.75916 12.7192C5.15999 12.4 5.04082 11.6025 5.35999 11.0034C5.75916 10.405 6.47749 10.2459 7.11666 10.645C7.98215 11.1732 8.97647 11.4526 9.99041 11.4526C11.0043 11.4526 11.9987 11.1732 12.8642 10.645C13.5033 10.2459 14.2608 10.405 14.62 11.0034C14.98 11.6025 14.8192 12.3992 14.26 12.7192C13.5025 13.1984 12.6242 13.5575 11.7058 13.8367L11.705 13.8359Z" fill="#C0C0C0"/>
</svg>
