<svg width="20" height="12" viewBox="0 0 20 12" fill="none" xmlns="http://www.w3.org/2000/svg">
<path fill-rule="evenodd" clip-rule="evenodd" d="M17.802 8.29802C17.802 8.29802 19.419 9.89502 19.819 10.634C19.8268 10.6447 19.8329 10.6565 19.837 10.669C20 10.942 20.04 11.156 19.96 11.314C19.825 11.575 19.368 11.706 19.213 11.717H16.355C16.156 11.717 15.742 11.665 15.238 11.317C14.853 11.048 14.47 10.605 14.099 10.172C13.545 9.52902 13.066 8.97102 12.581 8.97102C12.5197 8.97089 12.4589 8.98103 12.401 9.00102C12.034 9.11702 11.568 9.64002 11.568 11.033C11.568 11.469 11.224 11.717 10.983 11.717H9.674C9.228 11.717 6.906 11.561 4.847 9.39002C2.324 6.73202 0.0579985 1.40002 0.0359985 1.35302C-0.105002 1.00802 0.190998 0.82002 0.510998 0.82002H3.397C3.784 0.82002 3.91 1.05402 3.998 1.26402C4.1 1.50502 4.478 2.46902 5.098 3.55202C6.102 5.31402 6.719 6.03102 7.212 6.03102C7.30462 6.03129 7.39568 6.00715 7.476 5.96102C8.12 5.60702 8 3.30702 7.97 2.83302C7.97 2.74102 7.969 1.80602 7.639 1.35402C7.403 1.03002 7.001 0.90402 6.758 0.85802C6.823 0.76402 6.961 0.62002 7.138 0.53502C7.579 0.31502 8.376 0.28302 9.167 0.28302H9.606C10.464 0.29502 10.686 0.35002 10.998 0.42902C11.626 0.57902 11.638 0.98602 11.583 2.37202C11.567 2.76802 11.55 3.21402 11.55 3.73902C11.55 3.85102 11.545 3.97602 11.545 4.10302C11.526 4.81402 11.501 5.61502 12.003 5.94402C12.0681 5.98458 12.1433 6.00606 12.22 6.00602C12.394 6.00602 12.915 6.00602 14.328 3.58102C14.948 2.51002 15.428 1.24702 15.461 1.15202C15.489 1.09902 15.573 0.95002 15.675 0.89002C15.7476 0.851415 15.8288 0.83213 15.911 0.83402H19.306C19.676 0.83402 19.927 0.89002 19.976 1.03002C20.058 1.25702 19.96 1.95002 18.41 4.04602C18.149 4.39502 17.92 4.69702 17.719 4.96102C16.314 6.80502 16.314 6.89802 17.802 8.29802Z" fill="#C0C0C0"/>
</svg>
